<svg xmlns="http://www.w3.org/2000/svg" width="1600" height="825" viewBox="0 0 1600 825" fill="none"><path d="M1000.03 824.515C1000.03 810.921 997.351 797.46 992.149 784.901C986.947 772.342 979.322 760.931 969.71 751.319C960.098 741.707 948.687 734.082 936.128 728.88C923.569 723.678 910.108 721 896.514 721C882.921 721 869.46 723.678 856.901 728.88C844.342 734.082 832.931 741.707 823.319 751.319C813.706 760.931 806.082 772.342 800.88 784.901C795.677 797.46 793 810.921 793 824.515L1000.03 824.515Z" fill="#00BB98"></path><path d="M103.029 -0.000198364C103.029 13.5935 100.351 27.0541 95.1492 39.613C89.9471 52.172 82.3223 63.5833 72.7101 73.1955C63.0979 82.8077 51.6865 90.4325 39.1276 95.6346C26.5687 100.837 13.1081 103.514 -0.485649 103.514C-14.0793 103.514 -27.5399 100.837 -40.0989 95.6346C-52.6578 90.4325 -64.0692 82.8077 -73.6814 73.1955C-83.2935 63.5833 -90.9184 52.172 -96.1204 39.613C-101.323 27.0541 -104 13.5935 -104 -0.000213623L103.029 -0.000198364Z" fill="#FD4C5C"></path></svg>