<svg width="122" height="40" viewBox="0 0 122 40" fill="none" xmlns="http://www.w3.org/2000/svg">
<g clip-path="url(#clip0_1034_228)">
<path d="M23.4712 30.0906C22.3843 30.4627 21.2191 30.6683 20.0049 30.6683C15.9119 30.6683 12.3672 28.3672 10.5753 24.989H6.32556C8.24478 30.2669 13.1309 34.1151 18.9669 34.5263L23.481 40.0098V30.0906H23.4712Z" fill="white"/>
<path d="M21.5129 20.0049C21.5129 19.1726 20.8372 18.4871 19.9951 18.4871C19.1628 18.4871 18.4774 19.1628 18.4774 20.0049C18.4774 20.847 19.153 21.5226 19.9951 21.5226C20.8372 21.5128 21.5129 20.8372 21.5129 20.0049Z" fill="white"/>
<path d="M28.4259 20.0049C28.4259 19.1726 27.7503 18.4871 26.9082 18.4871C26.0759 18.4871 25.3904 19.1628 25.3904 20.0049C25.3904 20.847 26.0661 21.5226 26.9082 21.5226C27.7503 21.5128 28.4259 20.8372 28.4259 20.0049Z" fill="white"/>
<path d="M14.5998 20.0049C14.5998 19.1726 13.9241 18.4871 13.082 18.4871C12.2497 18.4871 11.5643 19.1628 11.5643 20.0049C11.5643 20.847 12.2399 21.5226 13.082 21.5226C13.9241 21.5128 14.5998 20.8372 14.5998 20.0049Z" fill="white"/>
<path d="M16.5287 9.90942C17.6157 9.53733 18.7809 9.3317 19.9951 9.3317C24.0881 9.3317 27.6328 11.6328 29.4247 15.011H33.6744C31.7552 9.74296 26.869 5.89474 21.0428 5.48348L16.5287 0V9.90942Z" fill="white"/>
<path d="M9.90942 23.4713C9.53733 22.3844 9.3317 21.2192 9.3317 20.005C9.3317 15.912 11.6328 12.3673 15.011 10.5754V6.32568C9.74296 8.2449 5.89474 13.1311 5.48348 18.9573L0 23.4713H9.90942Z" fill="white"/>
<path d="M30.0906 16.5288C30.4627 17.6157 30.6683 18.7809 30.6683 19.9951C30.6683 24.0881 28.3672 27.6328 24.989 29.4247V33.6744C30.2571 31.7552 34.1151 26.869 34.5263 21.0331L40.0098 16.519H30.0906V16.5288Z" fill="white"/>
</g>
<path d="M52.686 28H55.81V15.504H60.452V12.666H48.044V15.504H52.686V28Z" fill="white"/>
<path d="M66.0871 16.912C64.8991 16.912 63.7551 17.638 63.2711 18.87V17.154H60.2571V28H63.2491V22.742C63.2491 20.762 64.0191 19.86 65.4051 19.86C65.9331 19.86 66.4391 20.014 66.7691 20.234L68.1991 17.572C67.4731 17.11 66.8131 16.912 66.0871 16.912Z" fill="white"/>
<path d="M69.2151 15.372H72.2951V12.666H69.2151V15.372ZM69.2591 28H72.2511V17.154H69.2591V28Z" fill="white"/>
<path d="M81.0009 16.912C79.9669 16.912 78.8009 17.242 78.0309 18.078V17.154H75.0389V32.488H78.0309V27.032C78.7129 27.78 79.8789 28.242 81.0009 28.242C83.5089 28.242 85.5109 26.218 85.5109 22.588C85.5109 19.376 83.9269 16.912 81.0009 16.912ZM80.2089 25.624C78.4489 25.624 77.7449 24.282 77.7449 22.566C77.7449 20.828 78.4049 19.53 80.2529 19.53C81.7929 19.53 82.5409 20.564 82.5409 22.566C82.5409 24.568 81.7709 25.624 80.2089 25.624Z" fill="white"/>
<path d="M94.8263 19.596V22.39H98.1923V22.61C98.1923 24.238 96.8943 25.404 94.5183 25.404C91.6803 25.404 89.8103 23.732 89.8103 20.322C89.8103 17.044 91.5263 15.218 94.2543 15.218C96.1683 15.218 97.6863 16.142 98.3463 17.968L101.206 16.846C100.04 13.854 97.4003 12.27 94.2983 12.27C89.7443 12.27 86.7083 15.724 86.7083 20.388C86.7083 25.096 89.8103 28.374 94.2983 28.374C96.2343 28.374 97.8183 27.758 98.7643 26.46L99.1163 28H101.294V19.596H94.8263Z" fill="white"/>
<path d="M108.424 28.242C111.834 28.242 113.924 25.58 113.924 22.566C113.924 19.53 111.856 16.912 108.424 16.912C104.97 16.912 102.924 19.53 102.924 22.566C102.924 25.58 104.992 28.242 108.424 28.242ZM108.424 25.624C106.51 25.624 105.894 24.106 105.894 22.566C105.894 20.982 106.532 19.508 108.424 19.508C110.338 19.508 110.954 20.982 110.954 22.566C110.954 24.128 110.316 25.624 108.424 25.624Z" fill="white"/>
<path d="M116.258 28H119.14V25.008H116.258V28Z" fill="white"/>
<defs>
<clipPath id="clip0_1034_228">
<rect width="40" height="40" fill="white"/>
</clipPath>
</defs>
</svg>
