<svg width="40" height="40" viewBox="0 0 40 40" fill="none" xmlns="http://www.w3.org/2000/svg">
<g clip-path="url(#clip0_1034_172)">
<path d="M23.4712 30.0906C22.3843 30.4627 21.2191 30.6683 20.0049 30.6683C15.9119 30.6683 12.3672 28.3672 10.5753 24.989H6.32556C8.24478 30.2669 13.1309 34.1151 18.9669 34.5263L23.481 40.0098V30.0906H23.4712Z" fill="#00BB98"/>
<path d="M21.5128 20.0049C21.5128 19.1726 20.8371 18.4871 19.995 18.4871C19.1627 18.4871 18.4773 19.1628 18.4773 20.0049C18.4773 20.847 19.1529 21.5226 19.995 21.5226C20.8371 21.5128 21.5128 20.8372 21.5128 20.0049Z" fill="#00BB98"/>
<path d="M28.426 20.0049C28.426 19.1726 27.7504 18.4871 26.9082 18.4871C26.0759 18.4871 25.3905 19.1628 25.3905 20.0049C25.3905 20.847 26.0661 21.5226 26.9082 21.5226C27.7504 21.5128 28.426 20.8372 28.426 20.0049Z" fill="#00BB98"/>
<path d="M14.5997 20.0049C14.5997 19.1726 13.9241 18.4871 13.082 18.4871C12.2496 18.4871 11.5642 19.1628 11.5642 20.0049C11.5642 20.847 12.2399 21.5226 13.082 21.5226C13.9241 21.5128 14.5997 20.8372 14.5997 20.0049Z" fill="#00BB98"/>
<path d="M16.5288 9.90942C17.6157 9.53733 18.781 9.3317 19.9951 9.3317C24.0882 9.3317 27.6328 11.6328 29.4248 15.011H33.6745C31.7552 9.74296 26.8691 5.89474 21.0429 5.48348L16.5288 0V9.90942Z" fill="#FD4C5C"/>
<path d="M9.90942 23.4713C9.53733 22.3844 9.3317 21.2192 9.3317 20.005C9.3317 15.912 11.6328 12.3673 15.011 10.5754V6.32568C9.74296 8.2449 5.89474 13.1311 5.48348 18.9573L0 23.4713H9.90942Z" fill="#FD4C5C"/>
<path d="M30.0906 16.5288C30.4627 17.6157 30.6683 18.7809 30.6683 19.9951C30.6683 24.0881 28.3672 27.6328 24.989 29.4247V33.6744C30.2571 31.7552 34.1151 26.869 34.5263 21.0331L40.0098 16.519H30.0906V16.5288Z" fill="#00BB98"/>
</g>
<defs>
<clipPath id="clip0_1034_172">
<rect width="40" height="40" fill="white"/>
</clipPath>
</defs>
</svg>
